<svg width="340" height="244" viewBox="0 0 340 244" fill="none" xmlns="http://www.w3.org/2000/svg">
<path d="M133.246 205H116.034V157.466H80.1455V205H63.0068V98.3594H80.1455V142.964H116.034V98.3594H133.246V205Z" fill="#003566"/>
<path d="M210.004 177.534C210.004 175.044 209.491 172.847 208.466 170.942C207.44 169.038 206 167.329 204.145 165.815C202.191 164.399 199.872 163.13 197.187 162.007C194.55 160.835 191.596 159.785 188.324 158.857C183.295 157.441 178.656 155.708 174.408 153.657C170.209 151.558 166.62 149.214 163.642 146.626C160.663 143.989 158.319 141.011 156.61 137.69C154.95 134.321 154.12 130.537 154.12 126.338C154.12 121.797 155.097 117.72 157.05 114.106C159.003 110.444 161.64 107.319 164.96 104.731C168.28 102.192 172.138 100.264 176.532 98.9453C180.976 97.5781 185.639 96.8945 190.521 96.8945C195.697 96.8945 200.507 97.7002 204.95 99.3115C209.442 100.874 213.349 103.071 216.669 105.903C219.989 108.784 222.602 112.227 224.506 116.23C226.459 120.186 227.436 124.58 227.436 129.414H210.004C209.76 126.729 209.174 124.287 208.246 122.09C207.367 119.844 206.122 117.915 204.511 116.304C202.851 114.741 200.824 113.521 198.432 112.642C196.088 111.714 193.378 111.25 190.302 111.25C187.616 111.25 185.126 111.616 182.831 112.349C180.585 113.032 178.632 114.009 176.972 115.278C175.312 116.597 174.018 118.184 173.09 120.039C172.162 121.895 171.698 123.97 171.698 126.265C171.747 128.706 172.382 130.854 173.603 132.71C174.823 134.517 176.459 136.104 178.51 137.471C180.609 138.838 183.002 140.034 185.688 141.06C188.422 142.085 191.278 143.037 194.257 143.916C198.017 144.99 201.679 146.333 205.243 147.944C208.856 149.507 212.177 151.411 215.204 153.657C218.964 156.489 221.967 159.883 224.213 163.838C226.508 167.744 227.655 172.261 227.655 177.388C227.655 182.124 226.654 186.299 224.652 189.912C222.699 193.525 220.062 196.528 216.742 198.921C213.373 201.411 209.467 203.291 205.023 204.561C200.58 205.781 195.893 206.392 190.961 206.392C185.736 206.392 180.585 205.586 175.507 203.975C170.429 202.314 166.01 199.922 162.25 196.797C158.783 193.867 156.024 190.425 153.974 186.47C151.972 182.515 150.946 177.974 150.897 172.847H168.476C168.72 176.118 169.403 178.975 170.526 181.416C171.698 183.809 173.285 185.786 175.287 187.349C177.24 188.96 179.535 190.156 182.172 190.938C184.857 191.719 187.787 192.109 190.961 192.109C193.646 192.109 196.137 191.792 198.432 191.157C200.775 190.522 202.802 189.57 204.511 188.301C206.171 187.08 207.489 185.566 208.466 183.76C209.491 181.953 210.004 179.878 210.004 177.534Z" fill="#003566"/>
<path d="M38.7148 65.3438H17.1328V228.625H38.7148V243.469H0.0429688V50.5H38.7148V65.3438Z" fill="#003566"/>
<path d="M237.992 50.5H276.762V243.469H237.992V228.625H259.672V65.3438H237.992V50.5Z" fill="#003566"/>
<path d="M339.303 73H291.598V64.8945L314.742 39.6992C316.663 37.5833 318.274 35.6953 319.576 34.0352C320.878 32.3424 321.936 30.7962 322.75 29.3965C323.531 27.9967 324.085 26.6947 324.41 25.4902C324.768 24.2533 324.947 23.0163 324.947 21.7793C324.947 20.1191 324.703 18.6055 324.215 17.2383C323.727 15.8711 323.01 14.6992 322.066 13.7227C321.122 12.7461 319.983 11.9811 318.648 11.4277C317.346 10.8743 315.882 10.5977 314.254 10.5977C312.171 10.5977 310.364 10.8906 308.834 11.4766C307.304 12.0625 306.035 12.8926 305.025 13.9668C303.984 15.1061 303.202 16.4896 302.682 18.1172C302.161 19.7122 301.9 21.5352 301.9 23.5859H290.182C290.182 20.4935 290.751 17.5801 291.891 14.8457C293.03 12.0788 294.658 9.66992 296.773 7.61914C298.857 5.56836 301.396 3.94076 304.391 2.73633C307.418 1.5319 310.787 0.929688 314.498 0.929688C317.981 0.929688 321.09 1.43424 323.824 2.44336C326.591 3.45247 328.919 4.85221 330.807 6.64258C332.662 8.43294 334.078 10.5814 335.055 13.0879C336.031 15.5618 336.52 18.2962 336.52 21.291C336.52 23.5371 336.145 25.7181 335.396 27.834C334.68 29.9173 333.688 31.9844 332.418 34.0352C331.116 36.0859 329.57 38.153 327.779 40.2363C326.021 42.3197 324.101 44.4681 322.018 46.6816L306.197 63.5762H339.303V73Z" fill="#003566"/>
</svg>
